<svg width="194" height="99" viewBox="0 0 194 99" fill="none" xmlns="http://www.w3.org/2000/svg">
<path d="M156.516 74.5493C155.277 72.759 153.257 71.7032 151.1 71.7032H132.371L126.496 63.0734C125.256 61.2373 123.191 60.1815 120.987 60.1815H92.9861L90.2319 49.8532C90.0483 49.1646 89.3597 48.7515 88.6712 48.9351L84.9071 49.945C84.2185 50.1286 83.8054 50.8172 83.989 51.5057L90.7368 76.6608L83.8972 90.6614L89.6811 93.5074L97.0256 78.3592C97.1174 78.1297 97.2092 77.9002 97.2551 77.6707H151.054C151.238 77.6707 151.421 77.7625 151.559 77.9461L164.504 96.9501L169.415 93.5992L156.516 74.5493ZM120.987 63.7619C121.951 63.7619 122.869 64.2669 123.42 65.0472L127.873 71.6114H96.0616L93.9501 63.716H120.987V63.7619Z" fill="url(#paint0_linear)"/>
<path d="M185.619 98.0518H10.4058C24.1309 89.881 42.4464 83.8218 60.8536 84.0972C82.8414 84.4185 103.957 89.5138 109.695 92.3139C125.44 91.3499 145.454 87.2186 155.92 87.5399C164.825 87.8613 177.77 90.2482 185.619 98.0518Z" fill="#EAEEF9"/>
<path d="M193.01 98.0518H185.619H10.4058H0.85791" stroke="#D5DAE8" stroke-width="0.918069" stroke-miterlimit="10" stroke-linecap="round" stroke-linejoin="round"/>
<path d="M70.7229 89.3302C69.7589 89.3302 68.8868 88.6416 68.7032 87.6777L52.4533 3.35302C52.2238 2.25134 52.9583 1.14966 54.1059 0.920139C55.2075 0.690622 56.3092 1.42508 56.5387 2.57266L72.7886 86.8514C73.0181 87.9531 72.2836 89.0548 71.136 89.2843C70.9524 89.3302 70.8606 89.3302 70.7229 89.3302Z" fill="#ADB6C8"/>
<path d="M43.135 46.0433C43.1809 45.7678 43.2727 45.5383 43.3645 45.2629C43.4104 45.676 43.4104 46.0892 43.4563 46.5023C43.3645 46.3187 43.2268 46.181 43.135 46.0433Z" fill="white"/>
<path d="M79.6282 38.8823C79.5823 38.9282 79.5823 39.02 79.5823 39.0659C79.5364 38.9282 79.4905 38.7905 79.4446 38.6069C79.4905 38.6987 79.5823 38.7905 79.6282 38.8823Z" fill="white"/>
<path d="M142.539 40.2034C151.311 40.2034 158.421 33.0926 158.421 24.3209C158.421 15.5491 151.311 8.43826 142.539 8.43826C133.767 8.43826 126.656 15.5491 126.656 24.3209C126.656 33.0926 133.767 40.2034 142.539 40.2034Z" fill="#EAEEF9"/>
<path d="M36.4331 93.9664C38.2233 91.2122 41.9415 91.8549 43.4563 92.4057" stroke="#ADB6C8" stroke-width="0.918069" stroke-miterlimit="10" stroke-linecap="round" stroke-linejoin="round"/>
<path d="M61.6799 91.1205C65.444 88.7794 70.3557 90.5696 70.7229 92.3599" stroke="#ADB6C8" stroke-width="0.918069" stroke-miterlimit="10" stroke-linecap="round" stroke-linejoin="round"/>
<path d="M77.1953 95.5731C77.838 94.655 79.3069 93.9665 80.2708 94.6091" stroke="#ADB6C8" stroke-width="0.918069" stroke-miterlimit="10" stroke-linecap="round" stroke-linejoin="round"/>
<path d="M136.87 94.9763C140.68 93.7369 140.863 94.5173 141.827 94.9763" stroke="#ADB6C8" stroke-width="0.918069" stroke-miterlimit="10" stroke-linecap="round" stroke-linejoin="round"/>
<path d="M149.769 93.9664C150.182 93.232 152.201 93.5533 152.201 93.5533" stroke="#ADB6C8" stroke-width="0.918069" stroke-miterlimit="10" stroke-linecap="round" stroke-linejoin="round"/>
<path d="M108.685 26.1671C104.829 24.2391 100.331 23.5047 95.7404 24.3768C87.7991 25.8457 81.7398 31.6296 79.6283 38.8823C79.5824 38.9282 79.5824 39.02 79.5824 39.0659C79.5364 38.9282 79.4905 38.7905 79.4446 38.6069C74.8543 32.7771 67.2343 29.5639 59.3848 31.0328C51.5353 32.4558 45.5679 38.1478 43.3645 45.2629C43.4104 45.676 43.4104 46.0891 43.4563 46.5023C43.3645 46.3646 43.2268 46.1809 43.135 46.0432C38.5906 39.7545 30.7411 36.3117 22.6162 37.7806C18.3472 38.561 14.5831 40.6266 11.7371 43.4726C16.6946 23.5965 32.8526 7.39254 54.3355 3.49075C76.0019 -0.502852 97.0257 9.09097 108.685 26.1671Z" fill="url(#paint1_linear)"/>
<path d="M79.4447 38.6069C74.8543 32.7772 67.2343 29.5639 59.3849 31.0328C51.5354 32.4558 45.5679 38.1479 43.3646 45.2629C41.5284 22.6325 45.7974 5.05147 54.3814 3.49076C62.9194 1.93004 73.11 16.8487 79.4447 38.6069Z" fill="#EAEEF9"/>
<defs>
<linearGradient id="paint0_linear" x1="126.663" y1="50.561" x2="126.663" y2="77.5358" gradientUnits="userSpaceOnUse">
<stop stop-color="#C7CFDD"/>
<stop offset="1" stop-color="#B4BDCF"/>
</linearGradient>
<linearGradient id="paint1_linear" x1="60.2188" y1="4.11546" x2="60.2188" y2="28.763" gradientUnits="userSpaceOnUse">
<stop stop-color="#C7CFDD"/>
<stop offset="1" stop-color="#B4BDCF"/>
</linearGradient>
</defs>
</svg>
